
rotate-right
<svg xmlns="http://www.w3.org/2000/svg" viewBox="0 0 24 24">
  <path d="M10.586 4L8.757 2.172 10.172.757 14.414 5l-4.242 4.243-1.415-1.415L10.586 6H8a3 3 0 0 0-3 3v4H3V9a5 5 0 0 1 5-5h2.586zM9 11a1 1 0 0 1 1-1h10a1 1 0 0 1 1 1v10a1 1 0 0 1-1 1H10a1 1 0 0 1-1-1V11zm2 1v8h8v-8h-8z" fill="currentColor" />
</svg>

rotate-left
<svg xmlns="http://www.w3.org/2000/svg" viewBox="0 0 24 24">
  <path d="M13.414 6l1.829 1.828-1.415 1.415L9.586 5 13.828.757l1.415 1.415L13.414 4H16a5 5 0 0 1 5 5v4h-2V9a3 3 0 0 0-3-3h-2.586zM15 11v10a1 1 0 0 1-1 1H4a1 1 0 0 1-1-1V11a1 1 0 0 1 1-1h10a1 1 0 0 1 1 1zm-2 1H5v8h8v-8z" fill="currentColor" />
</svg>

offscreen
<svg xmlns="http://www.w3.org/2000/svg" viewBox="0 0 24 24">
  <path d="M18 7h4v2h-6V3h2v4zM8 9H2V7h4V3h2v6zm10 8v4h-2v-6h6v2h-4zM8 15v6H6v-4H2v-2h6z" fill="currentColor" />
</svg>

fullscreen
<svg xmlns="http://www.w3.org/2000/svg" viewBox="0 0 24 24">
  <path d="M20 3h2v6h-2V5h-4V3h4zM4 3h4v2H4v4H2V3h2zm16 16v-4h2v6h-6v-2h4zM4 19h4v2H2v-6h2v4z" fill="currentColor" />
</svg>


arrow-left
<svg xmlns="http://www.w3.org/2000/svg" viewBox="0 0 24 24">
  <path d="M7.828 11H20v2H7.828l5.364 5.364-1.414 1.414L4 12l7.778-7.778 1.414 1.414z" fill="currentColor" />
</svg>

arrow-right
<svg xmlns="http://www.w3.org/2000/svg" viewBox="0 0 24 24">
  <path d="M16.172 11l-5.364-5.364 1.414-1.414L20 12l-7.778 7.778-1.414-1.414L16.172 13H4v-2z" fill="currentColor" />
</svg>

grid
<svg xmlns="http://www.w3.org/2000/svg" viewBox="0 0 24 24">
  <path d="M14 10v4h-4v-4h4zm2 0h5v4h-5v-4zm-2 11h-4v-5h4v5zm2 0v-5h5v4a1 1 0 0 1-1 1h-4zM14 3v5h-4V3h4zm2 0h4a1 1 0 0 1 1 1v4h-5V3zm-8 7v4H3v-4h5zm0 11H4a1 1 0 0 1-1-1v-4h5v5zM8 3v5H3V4a1 1 0 0 1 1-1h4z" fill="currentColor" />
</svg>

play
<svg xmlns="http://www.w3.org/2000/svg" viewBox="0 0 24 24">
  <path d="M19.376 12.416L8.777 19.482A.5.5 0 0 1 8 19.066V4.934a.5.5 0 0 1 .777-.416l10.599 7.066a.5.5 0 0 1 0 .832z" fill="currentColor" />
</svg>

pause
<svg xmlns="http://www.w3.org/2000/svg" viewBox="0 0 24 24">
  <path d="M6 5h12a1 1 0 0 1 1 1v12a1 1 0 0 1-1 1H6a1 1 0 0 1-1-1V6a1 1 0 0 1 1-1z" fill="currentColor" />
</svg>

close
<svg xmlns="http://www.w3.org/2000/svg" viewBox="0 0 24 24">
  <path d="M20 20L4 4m16 0L4 20" fill="none" stroke="currentColor" stroke-width="2.5" stroke-linecap="round" stroke-linejoin="bevel"></path>
</svg>

zoom-in
<svg xmlns="http://www.w3.org/2000/svg" viewBox="0 0 24 24">
  <path d="M18.031 16.617l4.283 4.282-1.415 1.415-4.282-4.283A8.96 8.96 0 0 1 11 20c-4.968 0-9-4.032-9-9s4.032-9 9-9 9 4.032 9 9a8.96 8.96 0 0 1-1.969 5.617zm-2.006-.742A6.977 6.977 0 0 0 18 11c0-3.868-3.133-7-7-7-3.868 0-7 3.132-7 7 0 3.867 3.132 7 7 7a6.977 6.977 0 0 0 4.875-1.975l.15-.15zM10 10V7h2v3h3v2h-3v3h-2v-3H7v-2h3z" fill="currentColor" />
</svg>

zoom-out
<svg xmlns="http://www.w3.org/2000/svg" viewBox="0 0 24 24">
  <path d="M18.031 16.617l4.283 4.282-1.415 1.415-4.282-4.283A8.96 8.96 0 0 1 11 20c-4.968 0-9-4.032-9-9s4.032-9 9-9 9 4.032 9 9a8.96 8.96 0 0 1-1.969 5.617zm-2.006-.742A6.977 6.977 0 0 0 18 11c0-3.868-3.133-7-7-7-3.868 0-7 3.132-7 7 0 3.867 3.132 7 7 7a6.977 6.977 0 0 0 4.875-1.975l.15-.15zM7 10h8v2H7v-2z" fill="currentColor" />
</svg>

download
<svg xmlns="http://www.w3.org/2000/svg" viewBox="0 0 24 24" width="24" height="24">
  <path d="M13 10h5l-6 6-6-6h5V3h2v7zm-9 9h16v-7h2v8a1 1 0 0 1-1 1H3a1 1 0 0 1-1-1v-8h2v7z" fill="currentColor" />
</svg>

plus
<svg xmlns="http://www.w3.org/2000/svg" width="24" height="24">
  <path d="M11 11V5h2v6h6v2h-6v6h-2v-6H5v-2z" />
</svg>

minus
<svg xmlns="http://www.w3.org/2000/svg" width="24" height="24">
  <path d="M5 11h14v2H5z" />
</svg>
